<svg width="212" height="50" viewBox="0 0 212 50" fill="none" xmlns="http://www.w3.org/2000/svg">
<rect width="212" height="50" rx="4" fill="#DAA520"/>
<path d="M34.0893 23.904C34.3346 23.904 34.5319 23.9787 34.6813 24.128C34.8306 24.2667 34.9053 24.4533 34.9053 24.688V28.128C34.9053 28.6187 34.8413 28.9653 34.7133 29.168C34.5853 29.3707 34.3239 29.536 33.9293 29.664C33.5026 29.8133 33.0066 29.9307 32.4413 30.016C31.8759 30.1013 31.3319 30.144 30.8093 30.144C29.6466 30.144 28.6386 29.9147 27.7853 29.456C26.9319 28.9973 26.2759 28.336 25.8173 27.472C25.3693 26.5973 25.1453 25.5573 25.1453 24.352C25.1453 23.168 25.3693 22.144 25.8173 21.28C26.2759 20.4053 26.9213 19.7387 27.7533 19.28C28.5853 18.8107 29.5666 18.576 30.6973 18.576C32.2013 18.576 33.4333 18.9813 34.3933 19.792C34.5213 19.9093 34.6119 20.0267 34.6653 20.144C34.7293 20.2613 34.7613 20.4 34.7613 20.56C34.7613 20.7947 34.6973 20.992 34.5693 21.152C34.4413 21.312 34.2866 21.392 34.1053 21.392C33.9879 21.392 33.8813 21.376 33.7853 21.344C33.6893 21.3013 33.5773 21.2373 33.4493 21.152C32.9799 20.8213 32.5426 20.592 32.1373 20.464C31.7319 20.3253 31.2733 20.256 30.7613 20.256C29.5986 20.256 28.7186 20.6027 28.1213 21.296C27.5346 21.9787 27.2413 22.9973 27.2413 24.352C27.2413 27.1253 28.4573 28.512 30.8893 28.512C31.6146 28.512 32.3399 28.4107 33.0653 28.208V25.376H31.2573C31.0013 25.376 30.7986 25.312 30.6493 25.184C30.5106 25.056 30.4413 24.8747 30.4413 24.64C30.4413 24.4053 30.5106 24.224 30.6493 24.096C30.7986 23.968 31.0013 23.904 31.2573 23.904H34.0893ZM43.2476 27.856C43.429 27.856 43.573 27.9253 43.6796 28.064C43.797 28.2027 43.8556 28.3893 43.8556 28.624C43.8556 28.9547 43.6583 29.232 43.2636 29.456C42.901 29.6587 42.4903 29.824 42.0316 29.952C41.573 30.0693 41.1356 30.128 40.7196 30.128C39.461 30.128 38.4636 29.7653 37.7276 29.04C36.9916 28.3147 36.6236 27.3227 36.6236 26.064C36.6236 25.264 36.7836 24.5547 37.1036 23.936C37.4236 23.3173 37.8716 22.8373 38.4476 22.496C39.0343 22.1547 39.6956 21.984 40.4316 21.984C41.1356 21.984 41.749 22.1387 42.2716 22.448C42.7943 22.7573 43.1996 23.1947 43.4876 23.76C43.7756 24.3253 43.9196 24.992 43.9196 25.76C43.9196 26.2187 43.717 26.448 43.3116 26.448H38.5916C38.6556 27.184 38.8636 27.728 39.2156 28.08C39.5676 28.4213 40.0796 28.592 40.7516 28.592C41.093 28.592 41.3916 28.5493 41.6476 28.464C41.9143 28.3787 42.213 28.2613 42.5436 28.112C42.8636 27.9413 43.0983 27.856 43.2476 27.856ZM40.4796 23.392C39.9356 23.392 39.4983 23.5627 39.1676 23.904C38.8476 24.2453 38.6556 24.736 38.5916 25.376H42.2076C42.1863 24.7253 42.0263 24.2347 41.7276 23.904C41.429 23.5627 41.013 23.392 40.4796 23.392ZM49.5103 28.608C50.0436 28.64 50.3103 28.88 50.3103 29.328C50.3103 29.584 50.2036 29.7813 49.9903 29.92C49.7876 30.048 49.4943 30.1013 49.1102 30.08L48.6783 30.048C46.8863 29.92 45.9903 28.96 45.9903 27.168V23.68H45.1903C44.9023 23.68 44.6783 23.616 44.5183 23.488C44.3689 23.36 44.2942 23.1733 44.2942 22.928C44.2942 22.6827 44.3689 22.496 44.5183 22.368C44.6783 22.24 44.9023 22.176 45.1903 22.176H45.9903V20.704C45.9903 20.416 46.0809 20.1867 46.2623 20.016C46.4436 19.8453 46.6889 19.76 46.9983 19.76C47.2969 19.76 47.5369 19.8453 47.7183 20.016C47.8996 20.1867 47.9903 20.416 47.9903 20.704V22.176H49.3503C49.6383 22.176 49.8569 22.24 50.0063 22.368C50.1663 22.496 50.2463 22.6827 50.2463 22.928C50.2463 23.1733 50.1663 23.36 50.0063 23.488C49.8569 23.616 49.6383 23.68 49.3503 23.68H47.9903V27.312C47.9903 28.1013 48.3529 28.5227 49.0783 28.576L49.5103 28.608ZM56.8963 30.096C56.5869 30.096 56.3363 30.0053 56.1443 29.824C55.9629 29.632 55.8723 29.376 55.8723 29.056V19.696C55.8723 19.3867 55.9576 19.1467 56.1283 18.976C56.3096 18.8053 56.5549 18.72 56.8643 18.72H60.8003C62.0056 18.72 62.9443 19.024 63.6163 19.632C64.2883 20.2293 64.6243 21.072 64.6243 22.16C64.6243 23.248 64.2883 24.096 63.6163 24.704C62.9443 25.312 62.0056 25.616 60.8003 25.616H57.9363V29.056C57.9363 29.376 57.8403 29.632 57.6483 29.824C57.4669 30.0053 57.2163 30.096 56.8963 30.096ZM60.5443 24.032C61.9629 24.032 62.6723 23.4133 62.6723 22.176C62.6723 20.9387 61.9629 20.32 60.5443 20.32H57.9363V24.032H60.5443ZM72.1695 27.856C72.3508 27.856 72.4948 27.9253 72.6015 28.064C72.7188 28.2027 72.7775 28.3893 72.7775 28.624C72.7775 28.9547 72.5802 29.232 72.1855 29.456C71.8228 29.6587 71.4122 29.824 70.9535 29.952C70.4948 30.0693 70.0575 30.128 69.6415 30.128C68.3828 30.128 67.3855 29.7653 66.6495 29.04C65.9135 28.3147 65.5455 27.3227 65.5455 26.064C65.5455 25.264 65.7055 24.5547 66.0255 23.936C66.3455 23.3173 66.7935 22.8373 67.3695 22.496C67.9562 22.1547 68.6175 21.984 69.3535 21.984C70.0575 21.984 70.6708 22.1387 71.1935 22.448C71.7162 22.7573 72.1215 23.1947 72.4095 23.76C72.6975 24.3253 72.8415 24.992 72.8415 25.76C72.8415 26.2187 72.6388 26.448 72.2335 26.448H67.5135C67.5775 27.184 67.7855 27.728 68.1375 28.08C68.4895 28.4213 69.0015 28.592 69.6735 28.592C70.0148 28.592 70.3135 28.5493 70.5695 28.464C70.8362 28.3787 71.1348 28.2613 71.4655 28.112C71.7855 27.9413 72.0202 27.856 72.1695 27.856ZM69.4015 23.392C68.8575 23.392 68.4202 23.5627 68.0895 23.904C67.7695 24.2453 67.5775 24.736 67.5135 25.376H71.1295C71.1082 24.7253 70.9482 24.2347 70.6495 23.904C70.3508 23.5627 69.9348 23.392 69.4015 23.392ZM78.8455 22.016C79.1228 21.9947 79.3415 22.0533 79.5015 22.192C79.6615 22.3307 79.7415 22.5387 79.7415 22.816C79.7415 23.104 79.6722 23.3173 79.5335 23.456C79.3948 23.5947 79.1442 23.6853 78.7815 23.728L78.3015 23.776C77.6722 23.84 77.2082 24.0533 76.9095 24.416C76.6215 24.7787 76.4775 25.232 76.4775 25.776V29.136C76.4775 29.4453 76.3815 29.6853 76.1895 29.856C75.9975 30.016 75.7575 30.096 75.4695 30.096C75.1815 30.096 74.9415 30.016 74.7495 29.856C74.5682 29.6853 74.4775 29.4453 74.4775 29.136V22.944C74.4775 22.6453 74.5682 22.416 74.7495 22.256C74.9415 22.096 75.1762 22.016 75.4535 22.016C75.7308 22.016 75.9548 22.096 76.1255 22.256C76.2962 22.4053 76.3815 22.624 76.3815 22.912V23.552C76.5842 23.0827 76.8828 22.72 77.2775 22.464C77.6828 22.208 78.1308 22.064 78.6215 22.032L78.8455 22.016ZM83.3564 30.128C82.1937 30.128 81.255 29.8987 80.5404 29.44C80.199 29.2373 80.0284 28.9493 80.0284 28.576C80.0284 28.3627 80.087 28.192 80.2044 28.064C80.3217 27.9253 80.4657 27.856 80.6364 27.856C80.8177 27.856 81.0684 27.9413 81.3884 28.112C81.7297 28.272 82.039 28.3947 82.3164 28.48C82.6044 28.5653 82.967 28.608 83.4044 28.608C83.8524 28.608 84.199 28.5333 84.4444 28.384C84.7004 28.2347 84.8284 28.0267 84.8284 27.76C84.8284 27.5787 84.775 27.4347 84.6684 27.328C84.5724 27.2213 84.391 27.1253 84.1244 27.04C83.8684 26.944 83.4737 26.8373 82.9404 26.72C81.991 26.528 81.3084 26.256 80.8924 25.904C80.487 25.552 80.2844 25.0667 80.2844 24.448C80.2844 23.9787 80.423 23.5573 80.7004 23.184C80.9777 22.8 81.3564 22.5067 81.8364 22.304C82.327 22.0907 82.8817 21.984 83.5004 21.984C83.9484 21.984 84.3804 22.0427 84.7964 22.16C85.2124 22.2667 85.5857 22.4267 85.9164 22.64C86.2577 22.8533 86.4284 23.136 86.4284 23.488C86.4284 23.7013 86.3697 23.8827 86.2524 24.032C86.135 24.1707 85.991 24.24 85.8204 24.24C85.703 24.24 85.5857 24.2187 85.4684 24.176C85.3617 24.1227 85.223 24.048 85.0524 23.952C84.743 23.792 84.4764 23.6747 84.2524 23.6C84.0284 23.5147 83.751 23.472 83.4204 23.472C83.0257 23.472 82.711 23.552 82.4764 23.712C82.2524 23.872 82.1404 24.0907 82.1404 24.368C82.1404 24.6347 82.2577 24.8373 82.4924 24.976C82.727 25.1147 83.1804 25.2533 83.8524 25.392C84.567 25.5413 85.127 25.712 85.5324 25.904C85.9377 26.096 86.2257 26.336 86.3964 26.624C86.5777 26.912 86.6684 27.28 86.6684 27.728C86.6684 28.4533 86.3644 29.0347 85.7564 29.472C85.159 29.9093 84.359 30.128 83.3564 30.128ZM91.858 30.128C91.058 30.128 90.354 29.9627 89.746 29.632C89.1487 29.3013 88.6847 28.8267 88.354 28.208C88.0233 27.5893 87.858 26.8693 87.858 26.048C87.858 25.2267 88.0233 24.512 88.354 23.904C88.6847 23.2853 89.1487 22.8107 89.746 22.48C90.354 22.1493 91.058 21.984 91.858 21.984C92.658 21.984 93.3567 22.1493 93.954 22.48C94.562 22.8107 95.026 23.2853 95.346 23.904C95.6767 24.512 95.842 25.2267 95.842 26.048C95.842 26.8693 95.6767 27.5893 95.346 28.208C95.026 28.8267 94.562 29.3013 93.954 29.632C93.3567 29.9627 92.658 30.128 91.858 30.128ZM91.842 28.576C92.4927 28.576 92.9887 28.3627 93.33 27.936C93.6713 27.5093 93.842 26.88 93.842 26.048C93.842 25.2267 93.6713 24.6027 93.33 24.176C92.9887 23.7387 92.498 23.52 91.858 23.52C91.218 23.52 90.722 23.7387 90.37 24.176C90.0287 24.6027 89.858 25.2267 89.858 26.048C89.858 26.88 90.0287 27.5093 90.37 27.936C90.7113 28.3627 91.202 28.576 91.842 28.576ZM102.037 21.984C102.976 21.984 103.674 22.2507 104.133 22.784C104.592 23.3173 104.821 24.1227 104.821 25.2V29.136C104.821 29.4347 104.73 29.6693 104.549 29.84C104.378 30.0107 104.138 30.096 103.829 30.096C103.52 30.096 103.274 30.0107 103.093 29.84C102.912 29.6693 102.821 29.4347 102.821 29.136V25.312C102.821 24.704 102.704 24.2613 102.469 23.984C102.245 23.7067 101.888 23.568 101.397 23.568C100.821 23.568 100.357 23.7493 100.005 24.112C99.6638 24.4747 99.4931 24.96 99.4931 25.568V29.136C99.4931 29.4347 99.4025 29.6693 99.2211 29.84C99.0398 30.0107 98.7945 30.096 98.4851 30.096C98.1758 30.096 97.9305 30.0107 97.7491 29.84C97.5785 29.6693 97.4931 29.4347 97.4931 29.136V22.944C97.4931 22.6667 97.5838 22.4427 97.7651 22.272C97.9465 22.1013 98.1918 22.016 98.5011 22.016C98.7785 22.016 99.0025 22.1013 99.1731 22.272C99.3545 22.432 99.4451 22.6453 99.4451 22.912V23.344C99.7118 22.9067 100.069 22.5707 100.517 22.336C100.965 22.1013 101.472 21.984 102.037 21.984ZM110.245 21.984C111.333 21.984 112.138 22.256 112.661 22.8C113.194 23.3333 113.461 24.1493 113.461 25.248V29.152C113.461 29.44 113.375 29.6693 113.205 29.84C113.034 30 112.799 30.08 112.501 30.08C112.223 30.08 111.994 29.9947 111.813 29.824C111.642 29.6533 111.557 29.4293 111.557 29.152V28.8C111.375 29.216 111.087 29.5413 110.693 29.776C110.309 30.0107 109.861 30.128 109.349 30.128C108.826 30.128 108.351 30.0213 107.924 29.808C107.498 29.5947 107.162 29.3013 106.917 28.928C106.671 28.5547 106.549 28.1387 106.549 27.68C106.549 27.104 106.693 26.6507 106.981 26.32C107.279 25.9893 107.759 25.7493 108.421 25.6C109.082 25.4507 109.994 25.376 111.157 25.376H111.557V25.008C111.557 24.4853 111.445 24.1067 111.221 23.872C110.997 23.6267 110.634 23.504 110.133 23.504C109.823 23.504 109.509 23.552 109.189 23.648C108.869 23.7333 108.49 23.8613 108.053 24.032C107.775 24.1707 107.573 24.24 107.445 24.24C107.253 24.24 107.093 24.1707 106.965 24.032C106.847 23.8933 106.789 23.712 106.789 23.488C106.789 23.3067 106.831 23.152 106.917 23.024C107.013 22.8853 107.167 22.7573 107.381 22.64C107.754 22.4373 108.197 22.2773 108.709 22.16C109.231 22.0427 109.743 21.984 110.245 21.984ZM109.749 28.688C110.282 28.688 110.714 28.512 111.045 28.16C111.386 27.7973 111.557 27.3333 111.557 26.768V26.432H111.269C110.554 26.432 109.999 26.464 109.605 26.528C109.21 26.592 108.927 26.704 108.757 26.864C108.586 27.024 108.501 27.2427 108.501 27.52C108.501 27.8613 108.618 28.144 108.853 28.368C109.098 28.5813 109.397 28.688 109.749 28.688ZM116.485 30.096C116.197 30.096 115.957 30.016 115.765 29.856C115.584 29.6853 115.493 29.4453 115.493 29.136V19.584C115.493 19.2747 115.584 19.04 115.765 18.88C115.957 18.72 116.197 18.64 116.485 18.64C116.773 18.64 117.013 18.72 117.205 18.88C117.397 19.04 117.493 19.2747 117.493 19.584V29.136C117.493 29.4453 117.397 29.6853 117.205 29.856C117.013 30.016 116.773 30.096 116.485 30.096ZM120.548 30.096C120.26 30.096 120.02 30.016 119.828 29.856C119.646 29.6853 119.556 29.4453 119.556 29.136V22.96C119.556 22.6507 119.646 22.416 119.828 22.256C120.02 22.096 120.26 22.016 120.548 22.016C120.836 22.016 121.076 22.096 121.268 22.256C121.46 22.416 121.556 22.6507 121.556 22.96V29.136C121.556 29.4453 121.46 29.6853 121.268 29.856C121.076 30.016 120.836 30.096 120.548 30.096ZM120.548 20.592C120.185 20.592 119.897 20.496 119.684 20.304C119.47 20.1013 119.364 19.84 119.364 19.52C119.364 19.2 119.47 18.944 119.684 18.752C119.897 18.56 120.185 18.464 120.548 18.464C120.9 18.464 121.182 18.56 121.396 18.752C121.62 18.944 121.732 19.2 121.732 19.52C121.732 19.84 121.625 20.1013 121.412 20.304C121.198 20.496 120.91 20.592 120.548 20.592ZM129.442 28.496C130.039 28.496 130.338 28.7467 130.338 29.248C130.338 29.4827 130.263 29.6693 130.114 29.808C129.965 29.936 129.741 30 129.442 30H124.098C123.831 30 123.613 29.9147 123.442 29.744C123.271 29.5733 123.186 29.3707 123.186 29.136C123.186 28.8907 123.282 28.656 123.474 28.432L127.586 23.68H124.018C123.719 23.68 123.495 23.616 123.346 23.488C123.197 23.36 123.122 23.1733 123.122 22.928C123.122 22.6827 123.197 22.496 123.346 22.368C123.495 22.24 123.719 22.176 124.018 22.176H129.186C129.463 22.176 129.682 22.2613 129.842 22.432C130.013 22.592 130.098 22.7947 130.098 23.04C130.098 23.296 130.007 23.5307 129.826 23.744L125.698 28.496H129.442ZM137.763 27.856C137.945 27.856 138.089 27.9253 138.195 28.064C138.313 28.2027 138.371 28.3893 138.371 28.624C138.371 28.9547 138.174 29.232 137.779 29.456C137.417 29.6587 137.006 29.824 136.547 29.952C136.089 30.0693 135.651 30.128 135.235 30.128C133.977 30.128 132.979 29.7653 132.243 29.04C131.507 28.3147 131.139 27.3227 131.139 26.064C131.139 25.264 131.299 24.5547 131.619 23.936C131.939 23.3173 132.387 22.8373 132.963 22.496C133.55 22.1547 134.211 21.984 134.947 21.984C135.651 21.984 136.265 22.1387 136.787 22.448C137.31 22.7573 137.715 23.1947 138.003 23.76C138.291 24.3253 138.435 24.992 138.435 25.76C138.435 26.2187 138.233 26.448 137.827 26.448H133.107C133.171 27.184 133.379 27.728 133.731 28.08C134.083 28.4213 134.595 28.592 135.267 28.592C135.609 28.592 135.907 28.5493 136.163 28.464C136.43 28.3787 136.729 28.2613 137.059 28.112C137.379 27.9413 137.614 27.856 137.763 27.856ZM134.995 23.392C134.451 23.392 134.014 23.5627 133.683 23.904C133.363 24.2453 133.171 24.736 133.107 25.376H136.723C136.702 24.7253 136.542 24.2347 136.243 23.904C135.945 23.5627 135.529 23.392 134.995 23.392ZM146.599 18.64C146.898 18.64 147.143 18.7253 147.335 18.896C147.527 19.0667 147.623 19.2907 147.623 19.568V29.136C147.623 29.424 147.533 29.6533 147.351 29.824C147.17 29.9947 146.93 30.08 146.631 30.08C146.333 30.08 146.093 29.9947 145.911 29.824C145.73 29.6533 145.639 29.424 145.639 29.136V28.736C145.405 29.1733 145.063 29.5147 144.615 29.76C144.178 30.0053 143.677 30.128 143.111 30.128C142.439 30.128 141.837 29.9573 141.303 29.616C140.781 29.2747 140.37 28.7947 140.071 28.176C139.783 27.5467 139.639 26.8267 139.639 26.016C139.639 25.2053 139.783 24.496 140.071 23.888C140.37 23.28 140.781 22.8107 141.303 22.48C141.826 22.1493 142.429 21.984 143.111 21.984C143.677 21.984 144.178 22.1013 144.615 22.336C145.053 22.5707 145.389 22.9013 145.623 23.328V19.536C145.623 19.2693 145.709 19.056 145.879 18.896C146.061 18.7253 146.301 18.64 146.599 18.64ZM143.639 28.576C144.279 28.576 144.77 28.3573 145.111 27.92C145.463 27.4827 145.639 26.8587 145.639 26.048C145.639 25.2373 145.463 24.6187 145.111 24.192C144.77 23.7547 144.285 23.536 143.655 23.536C143.015 23.536 142.519 23.7493 142.167 24.176C141.815 24.6027 141.639 25.216 141.639 26.016C141.639 26.8267 141.815 27.456 142.167 27.904C142.519 28.352 143.01 28.576 143.639 28.576ZM162.744 18.64C163.043 18.64 163.278 18.736 163.448 18.928C163.63 19.1093 163.72 19.3547 163.72 19.664V29.056C163.72 29.3653 163.63 29.616 163.448 29.808C163.267 30 163.032 30.096 162.744 30.096C162.403 30.096 162.142 29.9733 161.96 29.728L156.12 22.128V29.056C156.12 29.3653 156.035 29.616 155.864 29.808C155.694 30 155.459 30.096 155.16 30.096C154.862 30.096 154.627 30 154.456 29.808C154.286 29.616 154.2 29.3653 154.2 29.056V19.664C154.2 19.3547 154.291 19.1093 154.472 18.928C154.654 18.736 154.894 18.64 155.192 18.64C155.523 18.64 155.779 18.7627 155.96 19.008L161.784 26.576V19.664C161.784 19.3547 161.87 19.1093 162.04 18.928C162.222 18.736 162.456 18.64 162.744 18.64ZM169.546 30.128C168.746 30.128 168.042 29.9627 167.434 29.632C166.836 29.3013 166.372 28.8267 166.042 28.208C165.711 27.5893 165.546 26.8693 165.546 26.048C165.546 25.2267 165.711 24.512 166.042 23.904C166.372 23.2853 166.836 22.8107 167.434 22.48C168.042 22.1493 168.746 21.984 169.546 21.984C170.346 21.984 171.044 22.1493 171.642 22.48C172.25 22.8107 172.714 23.2853 173.034 23.904C173.364 24.512 173.53 25.2267 173.53 26.048C173.53 26.8693 173.364 27.5893 173.034 28.208C172.714 28.8267 172.25 29.3013 171.642 29.632C171.044 29.9627 170.346 30.128 169.546 30.128ZM169.53 28.576C170.18 28.576 170.676 28.3627 171.018 27.936C171.359 27.5093 171.53 26.88 171.53 26.048C171.53 25.2267 171.359 24.6027 171.018 24.176C170.676 23.7387 170.186 23.52 169.546 23.52C168.906 23.52 168.41 23.7387 168.058 24.176C167.716 24.6027 167.546 25.2267 167.546 26.048C167.546 26.88 167.716 27.5093 168.058 27.936C168.399 28.3627 168.89 28.576 169.53 28.576ZM185.632 22.608C185.706 22.416 185.813 22.272 185.952 22.176C186.101 22.08 186.261 22.032 186.432 22.032C186.677 22.032 186.896 22.1173 187.088 22.288C187.29 22.448 187.392 22.6507 187.392 22.896C187.392 23.0347 187.365 23.1573 187.312 23.264L184.672 29.456C184.586 29.6587 184.453 29.8133 184.272 29.92C184.101 30.0267 183.909 30.08 183.696 30.08C183.493 30.08 183.301 30.0267 183.12 29.92C182.949 29.8133 182.821 29.6587 182.736 29.456L180.832 24.88L178.992 29.456C178.906 29.6587 178.773 29.8133 178.592 29.92C178.421 30.0267 178.229 30.08 178.016 30.08C177.813 30.08 177.621 30.0267 177.44 29.92C177.258 29.8133 177.125 29.6587 177.04 29.456L174.416 23.264C174.362 23.1253 174.336 23.008 174.336 22.912C174.336 22.6667 174.442 22.4587 174.656 22.288C174.869 22.1067 175.104 22.016 175.36 22.016C175.541 22.016 175.706 22.064 175.856 22.16C176.005 22.256 176.117 22.4 176.192 22.592L178.08 27.472L180.016 22.64C180.101 22.4373 180.224 22.288 180.384 22.192C180.544 22.0853 180.72 22.032 180.912 22.032C181.104 22.032 181.28 22.0853 181.44 22.192C181.6 22.288 181.722 22.4373 181.808 22.64L183.76 27.488L185.632 22.608Z" fill="white"/>
</svg>
