<svg width="120" height="98" viewBox="0 0 120 98" fill="none" xmlns="http://www.w3.org/2000/svg">
<path d="M54.1938 10.2903H7.74207V41.2579H54.1938V10.2903Z" fill="#F9BDBD"/>
<path d="M114.193 0.612732H5.80657C2.60536 0.612732 0 3.21809 0 6.4193V78.032C0 81.2332 2.60536 83.8386 5.80657 83.8386H38.7096V93.5162H29.032V97.3873H90.9676V93.5162H81.2903V83.8386H114.193C117.395 83.8386 120 81.2332 120 78.032V6.4193C120 3.21809 117.395 0.612732 114.193 0.612732ZM5.80657 4.48378H114.194C115.262 4.48378 116.129 5.35277 116.129 6.4193V66.4193H3.87105V6.4193C3.87105 5.35277 4.73801 4.48378 5.80657 4.48378ZM77.4193 93.5162H42.5807V83.8386H77.4193V93.5162ZM114.193 79.9676H5.80657C4.73801 79.9676 3.87105 79.0986 3.87105 78.032V70.2903H116.129V78.0324C116.129 79.0986 115.262 79.9676 114.193 79.9676Z" fill="#333333"/>
<path d="M67.9685 47.0644H73.5487V47.4205C71.3014 48.2216 69.6777 50.351 69.6777 52.871C69.6777 56.0722 72.283 58.6776 75.4842 58.6776C78.0042 58.6776 80.1332 57.0538 80.9348 54.8065H97.1327C97.9338 57.0538 100.063 58.6776 102.583 58.6776C105.784 58.6776 108.39 56.0722 108.39 52.871C108.39 50.351 106.766 48.222 104.519 47.4205V47.0644H110.141L112.464 23.8386H71.6128V27.7096H108.184L106.635 43.1934H71.386L67.5149 12.2258H59.9996V16.0969H64.0975L67.9685 47.0644ZM97.1302 50.9355H80.9323C80.3478 49.2963 79.0569 48.005 77.4173 47.4205V47.0644H100.643V47.4205C99.006 48.005 97.7147 49.2963 97.1302 50.9355ZM75.4838 54.8065C74.4153 54.8065 73.5483 53.9375 73.5483 52.871C73.5483 51.8045 74.4153 50.9355 75.4838 50.9355C76.5524 50.9355 77.4193 51.8045 77.4193 52.871C77.4193 53.9375 76.5524 54.8065 75.4838 54.8065ZM102.581 54.8065C101.512 54.8065 100.645 53.9375 100.645 52.871C100.645 51.8045 101.512 50.9355 102.581 50.9355C103.649 50.9355 104.516 51.8045 104.516 52.871C104.516 53.9375 103.649 54.8065 102.581 54.8065Z" fill="#333333"/>
<path d="M104.516 33.5162H73.5483V37.3873H104.516V33.5162Z" fill="#333333"/>
<path d="M54.1938 47.0645H7.74207V50.9355H54.1938V47.0645Z" fill="#333333"/>
<path d="M54.1938 56.7421H7.74207V60.6131H54.1938V56.7421Z" fill="#333333"/>
</svg>
