<svg width="175" height="50" viewBox="0 0 175 50" fill="none" xmlns="http://www.w3.org/2000/svg">
<rect width="175" height="50" rx="4" fill="#DAA520"/>
<path d="M26.208 30C25.8987 30 25.6533 29.9147 25.472 29.744C25.3013 29.5733 25.216 29.3333 25.216 29.024V19.696C25.216 19.3867 25.3013 19.1467 25.472 18.976C25.6533 18.8053 25.8987 18.72 26.208 18.72H31.984C32.2933 18.72 32.5333 18.7893 32.704 18.928C32.8747 19.0667 32.96 19.264 32.96 19.52C32.96 19.7867 32.8747 19.9947 32.704 20.144C32.5333 20.2827 32.2933 20.352 31.984 20.352H27.232V23.456H31.664C31.9733 23.456 32.2133 23.5253 32.384 23.664C32.5547 23.8027 32.64 24.0053 32.64 24.272C32.64 24.528 32.5547 24.7253 32.384 24.864C32.2133 25.0027 31.9733 25.072 31.664 25.072H27.232V28.368H31.984C32.2933 28.368 32.5333 28.4427 32.704 28.592C32.8747 28.7307 32.96 28.9333 32.96 29.2C32.96 29.456 32.8747 29.6533 32.704 29.792C32.5333 29.9307 32.2933 30 31.984 30H26.208ZM41.2459 28.528C41.4379 28.72 41.5339 28.9387 41.5339 29.184C41.5339 29.4187 41.4432 29.632 41.2619 29.824C41.0805 30.0053 40.8672 30.096 40.6219 30.096C40.3552 30.096 40.1259 29.984 39.9339 29.76L37.6779 27.264L35.4219 29.76C35.2192 29.9733 34.9899 30.08 34.7339 30.08C34.4992 30.08 34.2912 29.9893 34.1099 29.808C33.9285 29.6267 33.8379 29.4187 33.8379 29.184C33.8379 28.9387 33.9339 28.72 34.1259 28.528L36.4619 25.984L34.2539 23.584C34.0619 23.392 33.9659 23.1733 33.9659 22.928C33.9659 22.6827 34.0565 22.4747 34.2379 22.304C34.4192 22.1227 34.6272 22.032 34.8619 22.032C35.1179 22.032 35.3472 22.1387 35.5499 22.352L37.6779 24.688L39.8059 22.352C40.0085 22.1387 40.2379 22.032 40.4939 22.032C40.7392 22.032 40.9472 22.1227 41.1179 22.304C41.2992 22.4747 41.3899 22.6827 41.3899 22.928C41.3899 23.1733 41.2939 23.392 41.1019 23.584L38.8939 25.984L41.2459 28.528ZM47.4735 21.984C48.1455 21.984 48.7428 22.1547 49.2655 22.496C49.7988 22.8373 50.2095 23.3227 50.4975 23.952C50.7962 24.5707 50.9455 25.2853 50.9455 26.096C50.9455 26.9067 50.7962 27.616 50.4975 28.224C50.2095 28.832 49.8042 29.3013 49.2815 29.632C48.7588 29.9627 48.1562 30.128 47.4735 30.128C46.9188 30.128 46.4228 30.0107 45.9855 29.776C45.5482 29.5413 45.2122 29.216 44.9775 28.8V32.064C44.9775 32.3413 44.8868 32.56 44.7055 32.72C44.5242 32.88 44.2842 32.96 43.9855 32.96C43.6868 32.96 43.4415 32.8747 43.2495 32.704C43.0682 32.5333 42.9775 32.3093 42.9775 32.032V22.96C42.9775 22.672 43.0628 22.4427 43.2335 22.272C43.4148 22.1013 43.6548 22.016 43.9535 22.016C44.2522 22.016 44.4922 22.1013 44.6735 22.272C44.8548 22.4427 44.9455 22.672 44.9455 22.96V23.36C45.1802 22.9227 45.5162 22.5867 45.9535 22.352C46.4015 22.1067 46.9082 21.984 47.4735 21.984ZM46.9455 28.576C47.5748 28.576 48.0655 28.3627 48.4175 27.936C48.7695 27.4987 48.9455 26.8853 48.9455 26.096C48.9455 25.2853 48.7695 24.656 48.4175 24.208C48.0655 23.76 47.5748 23.536 46.9455 23.536C46.3055 23.536 45.8095 23.7547 45.4575 24.192C45.1162 24.6293 44.9455 25.2533 44.9455 26.064C44.9455 26.864 45.1162 27.4827 45.4575 27.92C45.8095 28.3573 46.3055 28.576 46.9455 28.576ZM53.5789 30.096C53.2909 30.096 53.0509 30.016 52.8589 29.856C52.6775 29.6853 52.5869 29.4453 52.5869 29.136V19.584C52.5869 19.2747 52.6775 19.04 52.8589 18.88C53.0509 18.72 53.2909 18.64 53.5789 18.64C53.8669 18.64 54.1069 18.72 54.2989 18.88C54.4909 19.04 54.5869 19.2747 54.5869 19.584V29.136C54.5869 29.4453 54.4909 29.6853 54.2989 29.856C54.1069 30.016 53.8669 30.096 53.5789 30.096ZM60.2174 30.128C59.4174 30.128 58.7134 29.9627 58.1054 29.632C57.508 29.3013 57.044 28.8267 56.7134 28.208C56.3827 27.5893 56.2174 26.8693 56.2174 26.048C56.2174 25.2267 56.3827 24.512 56.7134 23.904C57.044 23.2853 57.508 22.8107 58.1054 22.48C58.7134 22.1493 59.4174 21.984 60.2174 21.984C61.0174 21.984 61.716 22.1493 62.3134 22.48C62.9214 22.8107 63.3854 23.2853 63.7054 23.904C64.036 24.512 64.2014 25.2267 64.2014 26.048C64.2014 26.8693 64.036 27.5893 63.7054 28.208C63.3854 28.8267 62.9214 29.3013 62.3134 29.632C61.716 29.9627 61.0174 30.128 60.2174 30.128ZM60.2014 28.576C60.852 28.576 61.348 28.3627 61.6894 27.936C62.0307 27.5093 62.2014 26.88 62.2014 26.048C62.2014 25.2267 62.0307 24.6027 61.6894 24.176C61.348 23.7387 60.8574 23.52 60.2174 23.52C59.5774 23.52 59.0814 23.7387 58.7294 24.176C58.388 24.6027 58.2174 25.2267 58.2174 26.048C58.2174 26.88 58.388 27.5093 58.7294 27.936C59.0707 28.3627 59.5614 28.576 60.2014 28.576ZM70.2205 22.016C70.4978 21.9947 70.7165 22.0533 70.8765 22.192C71.0365 22.3307 71.1165 22.5387 71.1165 22.816C71.1165 23.104 71.0472 23.3173 70.9085 23.456C70.7698 23.5947 70.5192 23.6853 70.1565 23.728L69.6765 23.776C69.0472 23.84 68.5832 24.0533 68.2845 24.416C67.9965 24.7787 67.8525 25.232 67.8525 25.776V29.136C67.8525 29.4453 67.7565 29.6853 67.5645 29.856C67.3725 30.016 67.1325 30.096 66.8445 30.096C66.5565 30.096 66.3165 30.016 66.1245 29.856C65.9432 29.6853 65.8525 29.4453 65.8525 29.136V22.944C65.8525 22.6453 65.9432 22.416 66.1245 22.256C66.3165 22.096 66.5512 22.016 66.8285 22.016C67.1058 22.016 67.3298 22.096 67.5005 22.256C67.6712 22.4053 67.7565 22.624 67.7565 22.912V23.552C67.9592 23.0827 68.2578 22.72 68.6525 22.464C69.0578 22.208 69.5058 22.064 69.9965 22.032L70.2205 22.016ZM78.0133 27.856C78.1946 27.856 78.3386 27.9253 78.4453 28.064C78.5626 28.2027 78.6213 28.3893 78.6213 28.624C78.6213 28.9547 78.4239 29.232 78.0293 29.456C77.6666 29.6587 77.2559 29.824 76.7973 29.952C76.3386 30.0693 75.9013 30.128 75.4852 30.128C74.2266 30.128 73.2293 29.7653 72.4933 29.04C71.7573 28.3147 71.3893 27.3227 71.3893 26.064C71.3893 25.264 71.5493 24.5547 71.8693 23.936C72.1893 23.3173 72.6373 22.8373 73.2133 22.496C73.7999 22.1547 74.4613 21.984 75.1973 21.984C75.9013 21.984 76.5146 22.1387 77.0373 22.448C77.5599 22.7573 77.9653 23.1947 78.2533 23.76C78.5413 24.3253 78.6853 24.992 78.6853 25.76C78.6853 26.2187 78.4826 26.448 78.0773 26.448H73.3573C73.4213 27.184 73.6293 27.728 73.9813 28.08C74.3333 28.4213 74.8453 28.592 75.5173 28.592C75.8586 28.592 76.1573 28.5493 76.4133 28.464C76.6799 28.3787 76.9786 28.2613 77.3093 28.112C77.6293 27.9413 77.8639 27.856 78.0133 27.856ZM75.2453 23.392C74.7013 23.392 74.2639 23.5627 73.9333 23.904C73.6133 24.2453 73.4213 24.736 73.3573 25.376H76.9733C76.9519 24.7253 76.7919 24.2347 76.4933 23.904C76.1946 23.5627 75.7786 23.392 75.2453 23.392ZM85.865 30.096C85.5557 30.096 85.305 30 85.113 29.808C84.9317 29.616 84.841 29.3653 84.841 29.056V19.696C84.841 19.3867 84.9263 19.1467 85.097 18.976C85.2783 18.8053 85.5237 18.72 85.833 18.72H91.449C92.0997 18.72 92.425 18.9973 92.425 19.552C92.425 20.096 92.0997 20.368 91.449 20.368H86.873V23.44H91.129C91.7797 23.44 92.105 23.7173 92.105 24.272C92.105 24.816 91.7797 25.088 91.129 25.088H86.873V29.056C86.873 29.3653 86.7823 29.616 86.601 29.808C86.4197 30 86.1743 30.096 85.865 30.096ZM99.7473 22.016C100.057 22.016 100.302 22.1013 100.483 22.272C100.665 22.4427 100.755 22.672 100.755 22.96V29.168C100.755 29.4453 100.659 29.6693 100.467 29.84C100.286 30.0107 100.046 30.096 99.7473 30.096C99.4593 30.096 99.2299 30.016 99.0593 29.856C98.8886 29.696 98.8033 29.4773 98.8033 29.2V28.8C98.5579 29.2267 98.2273 29.5573 97.8113 29.792C97.3953 30.016 96.9259 30.128 96.4033 30.128C94.4833 30.128 93.5233 29.0507 93.5233 26.896V22.96C93.5233 22.672 93.6139 22.4427 93.7953 22.272C93.9766 22.1013 94.2166 22.016 94.5153 22.016C94.8246 22.016 95.0699 22.1013 95.2513 22.272C95.4326 22.4427 95.5233 22.672 95.5233 22.96V26.912C95.5233 27.4667 95.6353 27.8773 95.8593 28.144C96.0833 28.4107 96.4353 28.544 96.9153 28.544C97.4699 28.544 97.9126 28.3627 98.2433 28C98.5846 27.6267 98.7553 27.136 98.7553 26.528V22.96C98.7553 22.672 98.8459 22.4427 99.0273 22.272C99.2086 22.1013 99.4486 22.016 99.7473 22.016ZM107.205 22.016C107.482 21.9947 107.701 22.0533 107.861 22.192C108.021 22.3307 108.101 22.5387 108.101 22.816C108.101 23.104 108.032 23.3173 107.893 23.456C107.754 23.5947 107.504 23.6853 107.141 23.728L106.661 23.776C106.032 23.84 105.568 24.0533 105.269 24.416C104.981 24.7787 104.837 25.232 104.837 25.776V29.136C104.837 29.4453 104.741 29.6853 104.549 29.856C104.357 30.016 104.117 30.096 103.829 30.096C103.541 30.096 103.301 30.016 103.109 29.856C102.928 29.6853 102.837 29.4453 102.837 29.136V22.944C102.837 22.6453 102.928 22.416 103.109 22.256C103.301 22.096 103.536 22.016 103.813 22.016C104.09 22.016 104.314 22.096 104.485 22.256C104.656 22.4053 104.741 22.624 104.741 22.912V23.552C104.944 23.0827 105.242 22.72 105.637 22.464C106.042 22.208 106.49 22.064 106.981 22.032L107.205 22.016ZM113.506 21.984C114.445 21.984 115.143 22.2507 115.602 22.784C116.061 23.3173 116.29 24.1227 116.29 25.2V29.136C116.29 29.4347 116.199 29.6693 116.018 29.84C115.847 30.0107 115.607 30.096 115.298 30.096C114.989 30.096 114.743 30.0107 114.562 29.84C114.381 29.6693 114.29 29.4347 114.29 29.136V25.312C114.29 24.704 114.173 24.2613 113.938 23.984C113.714 23.7067 113.357 23.568 112.866 23.568C112.29 23.568 111.826 23.7493 111.474 24.112C111.133 24.4747 110.962 24.96 110.962 25.568V29.136C110.962 29.4347 110.871 29.6693 110.69 29.84C110.509 30.0107 110.263 30.096 109.954 30.096C109.645 30.096 109.399 30.0107 109.218 29.84C109.047 29.6693 108.962 29.4347 108.962 29.136V22.944C108.962 22.6667 109.053 22.4427 109.234 22.272C109.415 22.1013 109.661 22.016 109.97 22.016C110.247 22.016 110.471 22.1013 110.642 22.272C110.823 22.432 110.914 22.6453 110.914 22.912V23.344C111.181 22.9067 111.538 22.5707 111.986 22.336C112.434 22.1013 112.941 21.984 113.506 21.984ZM119.313 30.096C119.025 30.096 118.785 30.016 118.593 29.856C118.412 29.6853 118.321 29.4453 118.321 29.136V22.96C118.321 22.6507 118.412 22.416 118.593 22.256C118.785 22.096 119.025 22.016 119.313 22.016C119.601 22.016 119.841 22.096 120.033 22.256C120.225 22.416 120.321 22.6507 120.321 22.96V29.136C120.321 29.4453 120.225 29.6853 120.033 29.856C119.841 30.016 119.601 30.096 119.313 30.096ZM119.313 20.592C118.951 20.592 118.663 20.496 118.449 20.304C118.236 20.1013 118.129 19.84 118.129 19.52C118.129 19.2 118.236 18.944 118.449 18.752C118.663 18.56 118.951 18.464 119.313 18.464C119.665 18.464 119.948 18.56 120.161 18.752C120.385 18.944 120.497 19.2 120.497 19.52C120.497 19.84 120.391 20.1013 120.177 20.304C119.964 20.496 119.676 20.592 119.313 20.592ZM126.448 28.608C126.981 28.64 127.248 28.88 127.248 29.328C127.248 29.584 127.141 29.7813 126.928 29.92C126.725 30.048 126.432 30.1013 126.048 30.08L125.616 30.048C123.824 29.92 122.928 28.96 122.928 27.168V23.68H122.128C121.84 23.68 121.616 23.616 121.456 23.488C121.306 23.36 121.232 23.1733 121.232 22.928C121.232 22.6827 121.306 22.496 121.456 22.368C121.616 22.24 121.84 22.176 122.128 22.176H122.928V20.704C122.928 20.416 123.018 20.1867 123.2 20.016C123.381 19.8453 123.626 19.76 123.936 19.76C124.234 19.76 124.474 19.8453 124.656 20.016C124.837 20.1867 124.928 20.416 124.928 20.704V22.176H126.288C126.576 22.176 126.794 22.24 126.944 22.368C127.104 22.496 127.184 22.6827 127.184 22.928C127.184 23.1733 127.104 23.36 126.944 23.488C126.794 23.616 126.576 23.68 126.288 23.68H124.928V27.312C124.928 28.1013 125.29 28.5227 126.016 28.576L126.448 28.608ZM134.466 22.016C134.775 22.016 135.021 22.1013 135.202 22.272C135.383 22.4427 135.474 22.672 135.474 22.96V29.168C135.474 29.4453 135.378 29.6693 135.186 29.84C135.005 30.0107 134.765 30.096 134.466 30.096C134.178 30.096 133.949 30.016 133.778 29.856C133.607 29.696 133.522 29.4773 133.522 29.2V28.8C133.277 29.2267 132.946 29.5573 132.53 29.792C132.114 30.016 131.645 30.128 131.122 30.128C129.202 30.128 128.242 29.0507 128.242 26.896V22.96C128.242 22.672 128.333 22.4427 128.514 22.272C128.695 22.1013 128.935 22.016 129.234 22.016C129.543 22.016 129.789 22.1013 129.97 22.272C130.151 22.4427 130.242 22.672 130.242 22.96V26.912C130.242 27.4667 130.354 27.8773 130.578 28.144C130.802 28.4107 131.154 28.544 131.634 28.544C132.189 28.544 132.631 28.3627 132.962 28C133.303 27.6267 133.474 27.136 133.474 26.528V22.96C133.474 22.672 133.565 22.4427 133.746 22.272C133.927 22.1013 134.167 22.016 134.466 22.016ZM141.924 22.016C142.201 21.9947 142.42 22.0533 142.58 22.192C142.74 22.3307 142.82 22.5387 142.82 22.816C142.82 23.104 142.75 23.3173 142.612 23.456C142.473 23.5947 142.222 23.6853 141.86 23.728L141.38 23.776C140.75 23.84 140.286 24.0533 139.988 24.416C139.7 24.7787 139.556 25.232 139.556 25.776V29.136C139.556 29.4453 139.46 29.6853 139.268 29.856C139.076 30.016 138.836 30.096 138.548 30.096C138.26 30.096 138.02 30.016 137.828 29.856C137.646 29.6853 137.556 29.4453 137.556 29.136V22.944C137.556 22.6453 137.646 22.416 137.828 22.256C138.02 22.096 138.254 22.016 138.532 22.016C138.809 22.016 139.033 22.096 139.204 22.256C139.374 22.4053 139.46 22.624 139.46 22.912V23.552C139.662 23.0827 139.961 22.72 140.356 22.464C140.761 22.208 141.209 22.064 141.7 22.032L141.924 22.016ZM149.716 27.856C149.898 27.856 150.042 27.9253 150.148 28.064C150.266 28.2027 150.324 28.3893 150.324 28.624C150.324 28.9547 150.127 29.232 149.732 29.456C149.37 29.6587 148.959 29.824 148.5 29.952C148.042 30.0693 147.604 30.128 147.188 30.128C145.93 30.128 144.932 29.7653 144.196 29.04C143.46 28.3147 143.092 27.3227 143.092 26.064C143.092 25.264 143.252 24.5547 143.572 23.936C143.892 23.3173 144.34 22.8373 144.916 22.496C145.503 22.1547 146.164 21.984 146.9 21.984C147.604 21.984 148.218 22.1387 148.74 22.448C149.263 22.7573 149.668 23.1947 149.956 23.76C150.244 24.3253 150.388 24.992 150.388 25.76C150.388 26.2187 150.186 26.448 149.78 26.448H145.06C145.124 27.184 145.332 27.728 145.684 28.08C146.036 28.4213 146.548 28.592 147.22 28.592C147.562 28.592 147.86 28.5493 148.116 28.464C148.383 28.3787 148.682 28.2613 149.012 28.112C149.332 27.9413 149.567 27.856 149.716 27.856ZM146.948 23.392C146.404 23.392 145.967 23.5627 145.636 23.904C145.316 24.2453 145.124 24.736 145.06 25.376H148.676C148.655 24.7253 148.495 24.2347 148.196 23.904C147.898 23.5627 147.482 23.392 146.948 23.392Z" fill="white"/>
</svg>
